<svg id="Слой_1" data-name="Слой 1" xmlns="http://www.w3.org/2000/svg" viewBox="0 0 640.05 514.05"><defs><style>.cls-1{fill:#035f61;}.cls-2{fill:#ed204e;}</style></defs><title>code-solid</title><path class="cls-1" d="M164.92,399.26l43.5-46.4a12,12,0,0,0-.54-17l-.26-.24L117,256l90.6-79.7a11.92,11.92,0,0,0,1.15-16.82c-.12-.13-.23-.26-.35-.38l-43.5-46.4a12,12,0,0,0-17-.54l0,0-144.1,135A11.92,11.92,0,0,0,3.16,264q.31.35.66.66l144.1,135.1a11.91,11.91,0,0,0,16.85-.35Zm327.2.6,144.1-135.1a11.93,11.93,0,0,0,.66-16.85c-.21-.22-.43-.44-.66-.65l-144.1-135.2a12.11,12.11,0,0,0-17,.5L431.62,159a12,12,0,0,0,.54,17l.26.24L523,256l-90.6,79.7a11.92,11.92,0,0,0-1.15,16.82l.35.38,43.5,46.4a12,12,0,0,0,17,.64l0,0Z" transform="translate(0.01 1.06)"/><path class="cls-2" d="M281.71,512.59,220.2,496.76a12,12,0,0,1-8.66-14.59v-.05L333.64,8a12,12,0,0,1,14.6-8.66h.05L409.8,15.15a12,12,0,0,1,8.66,14.6v.05L296.36,503.94a12,12,0,0,1-14.6,8.67Z" transform="translate(0.01 1.06)"/></svg>